<?xml version="1.0" encoding="utf-8"?>
<!-- Generator: Adobe Illustrator 23.0.2, SVG Export Plug-In . SVG Version: 6.00 Build 0)  -->
<svg version="1.1" id="Layer_1" xmlns="http://www.w3.org/2000/svg" xmlns:xlink="http://www.w3.org/1999/xlink" x="0px" y="0px"
	 viewBox="0 0 72 72" style="enable-background:new 0 0 72 72;" xml:space="preserve">
<style type="text/css">
	.st0{fill:#FFFFFF;}
</style>
<g>
	<path class="st0" d="M34.8,13.7C34.7,13.7,34.7,13.7,34.8,13.7l-0.3,0.1l0.1,0.2l0.2-0.1L35,14l-0.1-0.2
		C34.9,13.9,34.9,13.8,34.8,13.7z"/>
	<path class="st0" d="M33.2,12.8c0,0,0.2-0.2,0.4-0.2c0.1,0,0.1,0,0.4,0c0.3-0.1,0.3-0.1,0.3,0s-0.1,0.3-0.1,0.3l0.4,0
		c0,0,0.2-0.1,0.1-0.4c-0.1-0.2-0.2-0.4-0.2-0.4s-0.2,0-0.4,0c-0.2,0-0.3-0.2-0.5-0.2c-0.1,0-0.2,0.1-0.3,0.1
		C33.3,12,33,12.2,33,12.2s0.3-0.1,0.5-0.1c0.2,0,0.2,0,0.2,0l-0.4,0.5L33.2,12.8z"/>
	<path class="st0" d="M34.4,12.9c0,0-0.1,0.1-0.4,0.1c-0.3,0.1-0.5-0.1-0.5-0.1c0,0.1,0.4,0.3,0.5,0.3c0.1,0,0.3-0.1,0.5-0.2
		C34.5,13,34.4,12.9,34.4,12.9z"/>
	<path class="st0" d="M35.2,11.7c0-0.2,0-0.4,0-0.4L35,11.7c0,0,0,0.2,0.1,0.3c0,0.1,0.1,0.4,0.1,0.4l0.2-0.4
		C35.3,12,35.2,11.9,35.2,11.7z"/>
	<polygon class="st0" points="34.9,11.3 34.8,11.6 34.7,11.9 34.9,12.2 	"/>
	<path class="st0" d="M33.2,10.7c0,0,0.3,0,0.4,0c0.1,0,0.2,0.1,0.3,0.1c0.1,0,0-0.5,0-0.5l-0.2,0.1c0,0-0.3,0.1-0.6,0.2
		C32.9,10.7,33,11,33,11L33.2,10.7z"/>
	<path class="st0" d="M35.1,15.8c0-0.1,0.1-0.5,0.1-0.5H35c0,0-0.1,0.3-0.1,0.4s0.1,0.4,0.1,0.4S35.1,16,35.1,15.8z"/>
	<path class="st0" d="M35.2,11.1l0.5,0l0-0.2c0,0-0.2,0-0.3,0c-0.1,0-0.5,0.2-0.5,0.2l0.1,0.2L35.2,11.1z"/>
	<path class="st0" d="M30.2,23.6C30.2,23.6,30.2,23.6,30.2,23.6L30.2,23.6z"/>
	<path class="st0" d="M31.7,30c0,0.1,0,0.2,0,0.2S31.7,30.1,31.7,30z"/>
	<path class="st0" d="M37.9,40.1c0.5,0.6,0.9,1.9,1,1.6c0.1-0.3,0.2-1-0.2-2c-0.4-1-0.9-1.9-0.9-1.9s0.7,2,0.3,1.8
		c-0.4-0.2-1.1-2.7-1.6-3.7c-0.5-1-2.1-2.1-2.1-2.1s1.5,1.5,2.3,3.5C37.5,39.2,37.5,39.5,37.9,40.1z"/>
	<path class="st0" d="M25,42.3c-1.2,0.9-0.5,2.4-0.5,2.4s0.5-1.2,1.5-2.6c1-1.3,1.7-2.5,1.7-2.5S26.2,41.3,25,42.3z"/>
	<path class="st0" d="M26.1,40.8c0.9-0.8,1.1-1.6,1.1-1.6s-0.9,0.4-1.7,1.4c-0.7,0.9-1,1.6-1,1.6S25.2,41.7,26.1,40.8z"/>
	<path class="st0" d="M30,47.4h-1c0,0-0.9,0-2.3,0.4c-1.4,0.4-3.4,1.3-3.4,1.3v0.4c0,0,0.8-0.5,2.6-1.1C27.7,47.9,30,47.4,30,47.4z"
		/>
	<path class="st0" d="M14.8,19.3C14.8,19.3,14.8,19.3,14.8,19.3C14.8,19.3,14.8,19.3,14.8,19.3z"/>
	<path class="st0" d="M31.1,54.9C31.1,54.9,31.2,54.9,31.1,54.9C31.2,54.9,31.1,54.9,31.1,54.9z"/>
	<path class="st0" d="M70.5,58.2c0.2,0.1,0.4,0.1,0.4,0.1C71,58.3,70.8,58.3,70.5,58.2z"/>
	<path class="st0" d="M61.1,56.1c-1,0.1-3.7,0.3-5.2,0.3c-1,0-3-0.1-4.6-0.2c-0.2-0.6-0.5-1.2-0.7-1.4c-0.5-0.5-0.5-1.4-0.3-1.9
		c0.1-0.5,2.3-2,2.9-2.5c0.6-0.5,1.6-2.2,1.7-2.6c0.1-0.4-0.3-1.2-0.3-1.2s0.4-0.3,0.6-0.5c0.2-0.2,0-0.6,0-1.2
		c0-0.4-0.1-1.1-0.1-1.5c0,0,0.1,0,0.1,0c0.2,0,0-0.2,0.1-0.4c0.1-0.2,0.2-0.5,0.3-0.6c0-0.1-0.2-0.5-0.4-0.9
		c-0.2-0.5-0.2-1-0.3-1.1c-0.1-0.1-0.7-0.3-0.9-0.4c0-0.1,0-0.2-0.1-0.2c-0.1-0.3-0.8,0-0.9-0.1c-0.1,0-0.5-0.2-0.9-0.2
		c-0.3,0-1-0.1-1.3-0.2c-0.1-0.1-0.1-0.3-0.2-0.5c-0.1-0.4-0.3-2.1-0.3-3.6c0-1.3-0.7-3-0.9-3.6c0-0.1,0-0.2,0-0.5
		c-0.1-0.4-0.5-1.1-0.5-1.1s0-0.4,0-0.6c0-0.2-0.1-0.8-0.2-1c-0.1-0.3-0.9-1.6-0.9-1.6s0-0.8-0.1-1.6c0-0.6-0.4-1.1-0.6-1.3
		l-0.1-0.4l1.2-8.3c0,0,0,0,0,0l0.1-0.3l1.5,0.4c0,0,0-0.3,0.1-1.6c0.1-1.3,1-5.1,1-5.1s-0.4,0.4-1,1.8c-0.6,1.4-0.7,3-1,3
		c-0.3,0-0.6-0.2-0.6-0.2L48.9,4l-2,8.9c-0.2,0-0.4,0-0.5-0.2c-0.3-0.3-0.3-1.5-0.6-2.9c0-0.1,0-0.2,0-0.2c-0.3-1.5-0.7-2.3-0.7-2.3
		s0,3-0.1,4.5c-0.2,1.5-0.3,2.3-0.3,2.3l2.2,0.5l0,0.3c0,0,0,0,0,0l0,0.4c0,0,0,0,0,0l-0.8,5.3c-0.4-0.5-1-1.1-1.6-1.5
		c-1.5-1-2.3-0.5-2.3-0.5l-0.6-0.2c0,0-0.3-0.1-1.1-0.2c-0.5-0.1-1,0-1.4,0c0,0-0.1,0-0.2-0.1L38.8,18c-0.1-0.1-0.1-0.1-0.3-0.2
		c-0.3-0.2-0.2-0.3-0.2-0.6c0-0.3,0.1-0.5,0-0.6c0,0-0.1-0.1-0.2-0.1c0,0,0-0.1,0-0.1c0-0.1,0-0.2-0.1-0.3c0.1-0.2,0.2-0.4,0.2-0.5
		c0-0.1-0.1-0.3-0.2-0.4c-0.1-0.1,0-0.4,0.1-0.5c0.1-0.1,0.2-0.3,0.2-0.4c0,0,0.1,0.1,0.1,0.1c0.2,0.2,0.4,0,0.5-0.1
		c0.1-0.1,0.1-0.7,0.1-0.9c0-0.2,0.1-0.2,0.1-0.3c0-0.1-0.1-0.4-0.2-0.5c0,0-0.1-0.1-0.1-0.1c0-0.1-0.1-0.1-0.1-0.2
		c-0.1-0.1-0.1-0.3-0.2-0.4c0.1,0,0.1-0.1,0.2-0.2c0.2-0.2,0-0.2-0.1-0.6c-0.1-0.2-0.2-0.2-0.3-0.3c-0.1-0.1-0.2-0.2-0.3-0.3
		c0-0.1,0.1-0.1,0-0.2c0,0-0.2-0.1-0.4-0.2c0,0,0-0.1,0-0.1c0-0.1-0.1-0.4-0.1-0.4s-0.1-0.2-0.3-0.3c-0.1-0.1-0.3-0.1-0.3-0.1
		s-0.4,0-0.5-0.1c-0.1-0.1-0.3-0.1-0.4-0.1c0,0-0.1-0.1-0.2-0.1c-0.1-0.1-0.2,0-0.2,0l0,0L35.5,9c0,0-0.3-0.1-0.4-0.1
		c-0.1,0-0.4,0-0.5,0.1c-0.1,0-0.2-0.1-0.3-0.1c-0.4,0-0.8,0.2-1,0.4c-0.2,0.2-0.6,0.3-0.7,0.3c-0.1,0-0.4,0.2-0.3,0.3
		c0,0,0.1,0.1,0.1,0.1c0,0.1,0,0.1,0,0.2c0,0,0,0,0,0.1c0,0-0.1,0-0.1,0c-0.1,0.1-0.2,0.2-0.2,0.3c-0.1,0.1-0.2,0.1-0.3,0.2
		c-0.2,0.1-0.4,0.2-0.5,0.4c-0.1,0.2-0.1,0.4-0.1,0.4s-0.2,0.1-0.2,0.2c0,0,0,0.2,0,0.3c-0.1,0-0.1,0-0.1,0s0,0.5,0,0.8
		c0,0.1,0,0.1,0,0.1c0,0.1,0.1,0.2,0.2,0.3c0,0,0,0.1,0,0.1c-0.1,0.2-0.2,0.3-0.4,0.4c-0.1,0.1-0.2,0.3-0.2,0.3l0.2,0.2
		c0,0.1,0,0.2,0,0.3c0,0.2,0.1,0.4,0.1,0.4s0.6,0.4,0.7,0.4c0.1,0,0.4,0,0.4,0s0-0.1,0-0.2c0.1,0.1,0.1,0.2,0.2,0.2
		c0.1,0.1,0.2,0.3,0.2,0.3s-0.5,0.4-0.6,0.5c-0.2,0.2-0.1,0.5,0,0.7c0.1,0.2,0.1,0.1,0.1,0.1l0,0c0,0,0,0,0,0
		c-0.1,0.1-0.3,0.5-0.4,0.6c0,0.1-0.1,0.2-0.1,0.3c0,0.1,0.1,0.3,0,0.5c-0.1,0.2-0.2,0.3-0.1,0.3c0.1,0,0.8,0.2,0.8,0.2
		s0,0.4,0.2,0.5c0.2,0.2,0.3,0.2,0.3,0.3c0,0,0,0.1,0.1,0.1c-0.3,0.1-1.6,0.7-2,1.2c-0.4,0.6-0.9,1.6-0.9,1.8
		c-0.1,0.2-0.1,0.6-0.1,0.9c0,0.3-0.1,0.6-0.1,0.6l0.1,0c-0.3,0.2-1.2,0.7-1.7,1.1c-0.5,0.6-0.8,1.5-0.8,1.5l-0.1,0.5
		c0,0-0.7-0.5-1-0.7c-0.3-0.1-0.8-0.3-2-0.6c-1.2-0.3-2-0.9-2.3-1.2c-0.1-0.1-0.1-0.1-0.2-0.2l0.6-0.3c0,0,1-0.6,1.4-0.7
		c0.3-0.1,0-0.6,0-0.9s-0.2-1.6-0.2-2.1c-0.1-0.5-0.2-0.9-0.2-1c0-0.1-0.5-0.5-0.7-0.5c-0.2-0.1-0.8,0-0.8,0L21,19.4l-0.3-0.2
		L20,18.7L19,19.1c-0.4-0.3-1-0.8-1.5-1.2l-0.6-0.8c0-0.1,0-0.1-0.1-0.2c-0.2-0.2-1.1-1.1-1.3-1.2c-0.2-0.1-0.8,0-0.8,0.2
		c0,0.2,0.1,1.1-0.4,1.1c-0.6,0.1-1.1,0-1.2,0.1c-0.1,0-0.5,0.6-0.6,0.9c-0.1,0.3,0.1,0.5,0.3,0.9c0.2,0.4,0.4,0.9,0.5,1.2
		c0.1,0.3-0.2,0.7-0.6,0.7c-0.4,0-0.7,0-0.5,0.1c0.2,0.1,1.2,0.6,1.7,0.8c0.4,0.1,1.1,0,1.5,0l0.9,0.4l0.1,0c0,0.1,0,0.2,0,0.4
		c0,0.1,0,0.2,0,0.3c0,0.1,0.2,0.4,0.3,0.5c0.2,0.1,0,0.3-0.1,0.7c-0.1,0.3,0.3,0.3,0.3,0.4c0,0.1,0.1,0.3,0.2,0.5
		c0.1,0.2,0.2,0.6,0.3,0.7c0,0.1,0.7,0.2,1,0.3c0.6,0.3,1.5,0.8,1.7,1c0.4,0.4,2.2,1.7,3,2.7c0.4,0.5,0.7,0.8,1,1c0,0,0,0,0,0
		s0.1,0,0.2,0.1c0.1,0.1,0.2,0.1,0.3,0.1c0.2,0.1,0.5,0.2,0.7,0.4c0.5,0.4,2.1,0.5,2.4,0.5c0.3,0,1.4-0.7,1.9-1.2
		c0.4-0.4,1.2-0.7,1.6-0.8c0,0,0,0,0,0c0.1,0.5,0.3,1.3,0.4,1.7c0.1,0.2,0.2,0.4,0.3,0.5c-0.1,0.2-0.3,0.4-0.4,0.6
		c-0.1,0.2-0.2,0.8-0.2,1.1c-0.6,0.3-1,0.6-1.2,0.9c-0.2,0.2-0.6,0.4-0.8,0.5c-0.3,0.1-1.4,0.7-1.5,1.2c-0.1,0.2-0.1,0.5-0.1,0.7
		c-0.1,0.1-0.2,0.3-0.4,0.5c-1.1,0.2-4.4,0.9-6,3c-2,2.6-1.9,3.1-1.9,3.1s-0.7-0.1-1.6,1.2c-0.9,1.3-1,1.9-1,1.9l0.2,1.3
		c0,0,0.3,0.6,0.6,1c0.1,0.3,0.6,0.8,1,1.1c0.2,0.5,0.6,1.7,1.4,2.8c0.6,0.7,1.6,1.8,2.5,2.8c-0.3,0-0.8,0.1-1.4,0.2
		c-0.8,0.1-2.9,0.3-4,0.4c-0.4-0.1-0.7-0.2-1-0.3c-0.4-0.2-0.6-0.3-0.6-0.3s-0.8,0.6-2.8,0.8c-2,0.2-4,0.5-4,0.5l6.8-0.7l2.5,0.9
		c-0.3,0-0.7,0.1-1.1,0.1c-2.8,0.2-5,0.4-5,0.4l8.4-0.2l0.5,0l2.7,0.2l-2.4,1c-2.6-0.7-3.3-0.7-3.3-0.7s-0.7,0.3-1.7,0.7
		c-0.5,0-1.1,0-1.9-0.2c-2.1-0.4-3.5-0.8-3.5-0.8l-0.9,0.8c0.2,0,0.7-0.1,1.8,0.1c1.9,0.2,3.3,0.4,3.8,0.5c-1.2,0.5-2.7,1.1-4,1.7
		c-1.1,0.4-0.4,0.2,0.8-0.1c0.9-0.1,2.3-0.3,3.3-0.2c1.5,0.2,5.2,1.7,7.9,1.6c1.4-0.1,2.8,0,3.9,0c1,0.4,2.1,0.7,3.1,1
		c-0.9,0.2-2.2,0.5-3.6,0.9c-0.5-0.1-1-0.2-1.5-0.3c-1.4-0.2-3.3-1-3.3-1s-0.6,0.2-1.6,0.6c-1.1,0.4-2.1,0.4-2.1,0.4
		s0.9,0.2,1.5,0.2c0.6-0.1,2.2-0.8,2.2-0.8s0.4,0.1,2.1,0.7c0.6,0.2,1.2,0.4,1.7,0.5c-0.9,0.2-1.7,0.4-2.4,0.6
		c-2.8,0.7-7.8-0.4-7.8-0.4s3.9,1.2,6.7,1.3c2.8,0.1,9-1.1,9-1.1s1.3,0.4,5.9,1c4.6,0.6,13.7,1.2,13.7,1.2s-3.2-0.6-9-1.2
		c-3.9-0.4-7.5-1.5-9.3-2.2c0.5,0,1.1-0.1,1.6-0.2c1.6,0.3,4.7,0.6,7.6-0.1c2,0.3,4.8,0.7,7.5,0.8c3.8,0.1,7.1-1.3,8.4-1.9
		c0.6,0.1,1.2,0.3,1.8,0.4c4.1,0.7,5.2,0.7,5.2,0.7s-4.3-0.9-7.7-2c-0.1-0.2-0.1-0.4,0.2-0.6c0.3-0.2,0.5-0.4,0.8-0.5
		c1.5-0.3,3.1-0.9,3.1-0.9l8.7,0.7c0,0,0,0-2.4-0.3c-2.4-0.3-6.3-1-6.3-1s-0.2,0.1-0.6,0.3C60,58.2,59.1,58,58,57.8
		c-0.7-0.1-1.1-0.2-1.4-0.4c2.9,0,6.6-1.1,6.6-1.1s5.7,1.4,7.4,1.8c-1.7-0.5-7.9-2.7-7.9-2.7S62.1,55.8,61.1,56.1z M48.4,13.6
		L48.4,13.6L48.4,13.6l0.9,0.1l1.2-4c0,0-0.4,2.2-0.8,3.5c-0.1,0.5-0.2,0.9-0.3,1.1l-1.1-0.3L48.4,13.6z M52.4,43.3
		c0,0,0.6,0.2,0.9,0.2c0.3,0,0.6,0.5,0.6,0.5l-1.8,0.2c0,0,0.9,0.2,0.9,0.4c0,0.2-1.9,0.3-1.7,0.3c0.1,0,1.5,0.1,1.2,0.3
		c-0.3,0.2-0.3,1-0.7,1.4c-0.4,0.3-2.1,0.5-2.1,0.5s0.7,0,1.2,0.1c0.6,0.1,0.2,0.3-1,1.7c-1.2,1.3-1.6,1-1.7,0.4
		c-0.1-0.5-0.4-1.2-0.5-1.9l2-0.3l-1.9-0.3C48,46,48,45.1,48,44.8c0.5,0,1.2,0,1.5,0c0.5,0,1.3,0,1.3,0l-2.6-0.3
		c0.2-0.3,0.6-0.8,0.6-1.2c0,0,0-0.1,0-0.1l3.5-0.5c0,0,0,0-1.2-0.2c-1-0.2-1.9,0-2.3,0c-0.1-0.3-0.3-0.6-0.8-0.6
		c-0.5,0-1.2-0.1-1.6-0.1c0-0.2-0.1-0.3-0.1-0.4l3.4-0.2c0.2,0.2,0.6,0.4,0.7,0.4c0.1,0.1,0.5,0.2,0.7,0.2c0.2,0,0.5-0.2,0.7-0.2
		c0.2-0.1-0.2-0.4-0.3-0.5c0,0-0.1-0.1-0.1-0.1l0.1,0.1c0,0,0.7,0,1.1,0c0.2,0,0.5,0,0.7,0l0.4,0.4c0,0,0,0.7,0,1
		c0,0.2,0.2,0.3,0.4,0.3c0,0.1,0.1,0.3,0.1,0.4C54.1,43.2,52.4,43.3,52.4,43.3z M46.3,44.5c0,0.1,0,0.2-0.1,0.3
		C46.2,44.7,46.2,44.6,46.3,44.5z M41.7,36.1c0.5,0.3,0.8,1,0.8,1.2c0,0.1,0,0.3-0.1,0.4L41,37.2c0,0-0.8-1.1-1.9-2.1
		c-0.7-0.6-1.8-1.3-2.6-1.7c0.1-0.1,0.2-0.2,0.4-0.2c0.2,0,0.4,0,0.8,0c0.2,0,0.8,0.2,1.1,0.5c0.1,0.1,0.3,0.3,0.4,0.5
		c0.1,0.2,0.3,0.3,0.4,0.5c0.5,0.5,0.7,0.9,1.1,1.2c0.4,0.2,0.7,0.2,0.2-0.2c-0.4-0.3-1.5-1.6-2.1-2.3c0.3,0.1,0.5,0.1,0.8,0.2
		c0.6,0.3,1.6,0.8,2.4,1.1l0.7,0.3c0.3,0.2,0.5,0.4,0.8,0.6c0.7,0.6,2.3,2.5,2.3,2.5s-0.5-0.3-1-0.3c-0.2-0.3-0.4-0.5-0.6-0.7
		c-1.1-1-1.5-1.4-1.7-1.2c-0.2,0.2-2-1.5-2-1.5S41.2,35.7,41.7,36.1z M34.5,32.2c0-0.4,0.3-0.8,0.3-0.8l0.1-0.3
		c0.2,0,0.4-0.1,0.6-0.1c0.5,0,0.9,0,1.4,0c0.2,0.3,0.5,1.1,0.5,1.5c0,0.2-0.1,0.3-0.2,0.4c-1.3,0-1.7,0.1-1.7,0.1
		c-0.2,0-0.4-0.1-0.7-0.1l0,0C34.8,32.8,34.5,32.6,34.5,32.2z M37.6,30.5c0-0.2,0.2-0.7,0.6-0.5c0.4,0.1,0.3,0.7,0.3,0.7l1.4-0.9
		l0,0c0.1,0.1,0.2,0.4,0.3,0.7c0.1,0.6-0.2,1-0.8,1.1c-0.2,0-0.5,0.1-0.7,0.3c-0.1-0.1-0.2-0.4-0.4-0.5c-0.1,0-0.4-0.2-0.6-0.4
		C37.7,30.9,37.6,30.7,37.6,30.5z M42.2,27.2c0-0.1-0.1-0.3-0.2-0.5c0-0.1,0-0.2,0-0.3c0-0.1,0-0.1,0-0.2c0.1-0.3,0.4-0.3,0.6-0.3
		c0,0.1,0.1,0.1,0.1,0.2c0,0.1,0,0.3,0,0.4c0,0.5,0.2,1,0,1.3c-0.2,0.3-0.6,0.6-0.7,0.9c-0.1,0.2-0.5,0.2-0.8,0.2l0.1-0.8
		C42,27.8,42.3,27.4,42.2,27.2z M42.9,28.1c-0.1-0.3,0.3-0.3,0.5-0.3c0.1,0.2,0.3,0.5,0.4,0.7c-0.1,0.1-0.2,0.3-0.3,0.4
		c-0.2,0.1-0.2,0.6-0.2,1c0,0.4,0.1,0.7-0.2,1.1c-0.3,0.4-1.2,0.9-1.4,1c-0.2,0-1.2,1-1.2,1s1.1,0.3,1.2,0.9c0,0.1,0,0.2,0,0.3
		c-0.3,0-0.7-0.1-0.9-0.2c-0.2-0.1-0.6-0.5-1.3-0.7c-0.1-0.2-0.3-0.5-0.3-0.7c0-0.3,0.3-0.6,0.5-0.8c0.6,0,0.9,0.1,1-0.2
		c0.2,0,0.4,0.1,0.7,0c0.5-0.2,1.1-0.1,1.2-0.6c0-0.2,0-0.4,0.1-0.5c0.2-0.4,0.4-0.9,0.2-0.9c-0.2,0-0.2,0.2-0.5,0.4
		c-0.2,0.2-0.7,0.4-0.9,0.4c-0.2,0-0.6-0.2-0.8-0.3c0,0,0-0.1,0-0.1c0.3-0.3,0.5-0.5,0.5-0.5c0.1,0.3,0.7-0.1,0.9-0.1
		c0.2,0,0.6-0.2,0.7-0.2C43,28.9,43,28.5,42.9,28.1z M47.4,39.9c-0.1,0-0.2-0.1-0.3-0.2c-0.2-0.3-0.8-1.4-1.3-2.1
		c-0.1-0.2-0.3-0.4-0.5-0.6l0.7-4.9c0,0.1,0,0.1,0,0.2c0.1,0.2,0.1,0.5,0.1,0.5s0,2,0.6,3c0.6,1,1.4,2.6,1.7,3.4
		c0.3,0.8,0.3,1,0.4,1.2c0,0.1,0,0.3,0.1,0.5c-0.1,0-0.3,0-0.4,0c0,0,0-0.1,0-0.1C48.4,40.4,48,40,47.4,39.9z M45.3,32.8
		c-0.1,1.1-0.5,2.9-0.7,3.5c-0.1-0.1-0.2-0.2-0.3-0.3l0.8-5.9c0.1,0.1,0.1,0.2,0.2,0.2l0,0c0,0.1,0,0.2,0.1,0.3
		C45.4,31.1,45.4,31.9,45.3,32.8z M44.2,35.8c-0.4-0.4-0.8-0.8-1-1c0-0.7,0-1.8,0-1.9c0-0.1,0.7-1.2,1-1.6c0.2-0.3,0.4-1.4,0.5-1.8
		c0.1,0.1,0.2,0.3,0.3,0.4L44.2,35.8z M39.9,29.4c0,0-0.1,0-0.1,0l-0.1-0.4c0.1-0.1,0.2-1,0.2-1l0.6-0.2c0.1,0.1,0.3,0.2,0.6,0.2
		c0,0.2-0.1,0.6-0.3,0.9C40.4,29.4,40.1,29.4,39.9,29.4z M40.9,30.2c0.3,0.1,0.7,0.3,1,0.3c0,0,0.1,0,0.1,0c-0.3,0.1-0.8,0.1-1,0.1
		C41,30.5,40.9,30.4,40.9,30.2z M41.9,25.7c0,0.2-0.1,0.3-0.2,0.4c-0.3,0.1-0.7,0.3-1,0.4c-0.2,0-0.4,0-0.6-0.1
		c0.1-0.2,0.3-0.4,0.5-0.6c0.1-0.1,0.2-0.2,0.2-0.3c0.1,0,0.3-0.1,0.6-0.2c0.2,0,0.3-0.1,0.5-0.1C41.9,25.4,41.9,25.5,41.9,25.7z
		 M40.1,26.9c0.2,0,1.1-0.2,1.1-0.2l0.6-0.3c0,0-0.2,0.4-0.4,0.9c-0.2,0.5-1,0.2-1,0.2s-0.1,0,0,0.2c-0.2-0.1-0.4-0.2-0.5-0.3
		c-0.1-0.1-0.2-0.4-0.3-0.6c0.1,0,0.1,0,0.2-0.1C39.9,26.8,40.1,26.9,40.1,26.9z M46,38.9c0.1,0,0.1,0.1,0.2,0.1
		c0.1,0.2,0.3,0.4,0.5,0.6c0.5,0.6,1.2,0.1,1.2,0.9c0,0.2-0.1,0.3-0.2,0.4c-0.1,0-0.1,0-0.1,0c-0.1,0-0.3,0-0.5,0
		c0.1-0.1,0.3-0.1,0.4-0.1c0.2,0-0.6-0.5-1-0.7c-0.3-0.1-0.7-0.5-1-0.7c0,0,0,0,0,0c-0.1-0.2-0.2-0.5-0.3-0.8
		C45.4,38.6,45.7,38.8,46,38.9z M54.9,40.9c0,0.3,0.4,1.3,0.4,1.6c0,0.3-0.4,0.4-0.5,0.2c-0.1-0.2-0.4-0.5-0.4-0.5
		c0-0.3-0.1-0.8-0.2-1.2c0-0.2-0.1-0.4-0.1-0.7C54.4,40.4,54.9,40.7,54.9,40.9z M47.8,27.2c0.2,0.5,0.8,1.4,0.4,1.1
		c-0.4-0.3-0.9-0.9-0.9-0.9s0.6,1,1,1.6c0.4,0.6,0.4,1,0.4,1s0.2,0.7,0.3,1.1c0.1,0.4-0.2,0.8-0.2,0.8s0.2,0.6,0.4,1.3
		c0.1,0.2,0.1,0.5,0.2,0.8c-0.1,0.2-0.2,0.4-0.4,0.6c-0.7,0.7-0.8,0.8-0.4,1.6c0.4,0.8,0.8,2.1,0.8,2.1s-0.3-1.4-0.1-2.2
		c0.1-0.2,0.1-0.4,0.1-0.6c0.1-0.2,0.2-0.5,0.2-1.1c0-0.7-0.5-2.4-0.5-2.4s0-0.1,0.1-0.2c0.1,0.3,0.3,0.8,0.4,1.3
		c0.2,0.7,0.3,1.7,0.2,2.6c-0.1,0.8-0.1,1.3-0.1,1.9c-0.1,0.6,0,0.8-0.1,1.6c-0.1,0.7,0.2,0.1,0.6,0.1c0,0,0.1,0,0.1,0
		c0.1,0,0.2,0.1,0.4,0.1c0.1,0,0.2,0.1,0.2,0.1s0,0,0,0c0.4,0.1,1,0.3,1.3,0.3c0.6,0,1.6,0.2,1.6,0.2s0.4,2,0.5,2.3
		c0,0.1,0,0.2-0.1,0.2l-0.1,0c-0.1,0-0.2,0-0.3-0.1c-0.2-0.2,0-0.8-0.1-1.1c-0.1-0.2-0.3-0.4-0.4-0.6l0.1-0.5l-0.5,0.2
		c0,0-0.9,0-1.4,0.1c-0.3,0-0.4,0-0.5,0c-0.1-0.2-0.2-0.3-0.4-0.4c-0.3-0.2-0.7-0.3-0.7-0.3s0.2,0.4,0.6,0.5
		c0.3,0.2,0.7,0.8,0.7,0.8s-0.1,0.3-0.3,0.2c-0.2,0-1.2-0.7-1.2-0.7s0-0.1-0.3-0.1c-0.3,0-0.5-0.2-0.5-0.5c-0.1-0.3-0.3-1.5-0.7-2.2
		c-0.4-0.7-1.4-2.4-1.6-3c-0.2-0.7-0.4-2.5-0.4-3c0-0.5,0-0.7,0.1-0.7c0.1,0,0.5,0.3,0.7,0.7c0.3,0.3,0.5,0.7,0.5,0.6
		c0-0.2-0.5-1.1-0.7-1.3c-0.2-0.2-0.6-0.6-0.8-0.8c-0.1-0.1-0.1-0.6-0.1-0.9c0.4-0.6,0.6-1.4,0.7-1.8c0.1-0.3-0.4-0.6-0.4-1.2
		c0,0,0,0,0,0c0,0,0-0.2,0.7-0.2c0.4,0,0.6,0.2,0.8,0.4C47.7,27,47.8,27.1,47.8,27.2z M47.4,24.9c0.2,0.4,0.1,1,0.1,1.3
		c-0.2,0.1-0.4,0.2-0.7,0c-0.3-0.2-0.6-0.5-0.8-0.7c0,0,0,0,0-0.1c0.1-0.2,0.3-0.6,0.5-0.8c0.1-0.1,0.1-0.1,0.2-0.2
		c0.1-0.1,0.3-0.2,0.4-0.2C47.1,24.4,47.3,24.6,47.4,24.9z M47.8,15.3c-0.1-0.1-0.2-0.1-0.4-0.2c-0.2,0-0.3-0.2-0.3-0.3
		c0.1,0,0.3,0,0.5,0l0.2,0.1C47.8,15,47.8,15.1,47.8,15.3z M45.7,13.4c0,0,0.3,0.5,0.5,0.7c0.1,0,0.1,0.1,0.2,0.1l-1.2-0.3
		c0,0,0.1-1.5,0.1-3.3c0.1-1.8,0.1-2.8,0.1-2.8s0.3,3.1,0.3,4.1C45.6,13,45.7,13.4,45.7,13.4l0.5-0.2l1.2,0.2l0,0l0,0l0,0l0.2,0
		c0.1,0.1,0.1,0.3,0.2,0.5C47.8,14.4,45.7,13.4,45.7,13.4z M47.2,15.4c0.1,0,0.1,0,0.2,0c0,0.5-0.1,1.7-0.2,2.8
		c-0.1,1.1-0.4,2.4-0.5,3.1c-0.1-0.1-0.2-0.3-0.3-0.4L47.2,15.4z M38.6,13.5c0,0.1-0.1,0.2-0.2,0.4c-0.1,0.1-0.1,0.2,0,0.3
		c-0.1,0.2-0.3,0.4-0.5,0.5c-0.1,0.1-0.2,0.2-0.2,0.3c-0.1,0-0.2,0-0.4,0c-0.2,0-0.2-0.1-0.3-0.2c0,0,0,0,0,0c0-0.1,0.4-0.5,0.4-0.5
		s0.2-0.3,0.4-0.5c0.1,0,0.1-0.1,0.1-0.2c0,0,0,0,0-0.1c0-0.1,0.2-0.2,0.3-0.2C38.4,13.3,38.6,13.4,38.6,13.5z M37.8,16.8
		c-0.1,0-0.2,0-0.3,0c-0.1-0.2-0.3-0.5-0.3-0.6c0,0,0.5,0.2,0.6,0.3C37.7,16.4,38,16.8,37.8,16.8z M36.4,14c0,0.1,0.1,0.4,0.3,0.5
		c0.1,0.1,0.2,0.2,0.1,0.2c0,0-0.1,0-0.2,0c-0.2-0.2-0.4-0.5-0.5-0.5l-0.1-0.2c0-0.1-0.1-0.2-0.1-0.3c0-0.1,0.2-0.3,0.1-0.5
		c-0.1-0.1-0.1-0.5,0.2-0.5c0.3,0,0.3,0,0.5,0.1c0.2,0.1,0.3,0.2,0.3,0.3c0,0-0.1,0-0.1,0c-0.2,0-0.4,0-0.4,0s0.2,0.1,0.5,0.1
		c0.2,0,0.4-0.1,0.5-0.1c0,0,0,0.1,0,0.2c-0.1,0.2-0.1,0.3-0.2,0.5c-0.1,0.2-0.3,0.4-0.4,0.4c-0.1-0.1-0.3-0.7-0.3-0.7
		S36.4,13.9,36.4,14z M36.7,14.9c0.1,0.1,0.1,0.2,0,0.4c0,0.1,0,0.2-0.1,0.2c0,0,0-0.1,0-0.1c-0.1-0.2-0.2-0.1-0.3-0.1
		c-0.1,0-0.2-0.1-0.3-0.4c-0.1-0.2-0.1-0.4-0.1-0.5c0-0.1,0-0.2,0-0.2s0.2,0.1,0.4,0.2c0,0,0.1,0.1,0.2,0.1
		C36.7,14.9,36.8,14.9,36.7,14.9C36.8,14.9,36.7,14.9,36.7,14.9z M37.4,10.9c0.1-0.2,0.3-0.1,0.4-0.1c0.1,0,0.3,0,0.3,0s0,0,0,0
		l0.2,0.2c-0.1,0-0.1,0-0.1,0l0.1,0.2c0,0,0.1,0.5,0.2,0.7c0,0,0,0,0,0c0,0.2,0,0.4,0,0.4c-0.1,0-0.1,0-0.2,0.3c0,0.1,0,0.1,0,0.2
		c-0.1,0.1-0.1,0.2-0.1,0.2s-0.1-0.3-0.2-0.4c-0.1-0.1-0.2-0.3-0.2-0.4c0-0.1,0.1-0.3,0.2-0.4c0,0,0,0,0,0c0,0.1,0,0.3,0,0.3
		s0.3-0.2,0.2-0.4c0-0.2-0.1-0.5-0.1-0.5c0-0.1,0-0.2-0.3-0.2C37.6,11,37.4,11,37.4,10.9C37.3,10.9,37.4,10.9,37.4,10.9z M32.2,18.3
		c-0.1,0.1-0.3,0.1-0.3,0.1c0-0.1-0.1-0.3-0.1-0.2c0,0.1-0.1,0.3-0.1,0.3s-0.2-0.1-0.1-0.4c0-0.3,0-0.4,0.1-0.7
		c0-0.1,0.2-0.3,0.2-0.4c0.1-0.1,0.3-0.2,0.3-0.2c0.1-0.1,0.3-0.2,0.4-0.2c0.2,0,0.2-0.2,0.2-0.4c0-0.1,0.3-0.4,0.3-0.6
		c0.1-0.2,0.1-0.3,0.1-0.4c0-0.1,0.2-0.3,0.3-0.5c0,0,0,0.1,0,0.1s0.2-0.3,0.3-0.4c0.1-0.1,0.3-0.4,0.3-0.4S34,14,33.9,14.2
		c0,0-0.2,0.3-0.3,0.4l-0.1-0.6c0,0-0.2,0-0.3-0.1C33,13.6,33,13.3,33,13.3s0,0.5,0,0.6s0.1,0.2,0.2,0.4c0.1,0.2,0.2,0.5,0.2,0.7
		c-0.1,0.2-0.2,0.4-0.3,0.6c-0.2,0.5-0.5,0.6-0.5,0.8c-0.1,0.2-0.3,0.2-0.6,0.3c-0.1,0-0.1,0.1-0.1,0.1l-0.1-0.1c0,0,0-0.1,0.1-0.2
		c0-0.1,0.2-0.3,0.2-0.4c0-0.1,0.2-0.2,0.2-0.2s0.2-0.1,0.3-0.3c0.1-0.2-0.1-0.3-0.1-0.3c-0.1,0-0.4,0-0.4-0.1c0-0.1,0-0.2,0.1-0.3
		c0.1,0,0.3-0.1,0.4-0.1c0.1-0.1,0-0.2,0-0.3c0-0.1-0.1-0.5-0.1-0.7c0-0.2,0.3-0.7,0.3-0.7s-0.3,0.3-0.4,0.6c0,0.2,0.1,0.7,0.1,0.8
		c0,0.1-0.1,0.1-0.3,0.1c-0.2,0-0.1-0.1-0.2-0.3c0-0.2,0-0.3-0.1-0.4c-0.1,0-0.3,0-0.6,0.1c-0.2,0.1-0.1,0.4,0,0.6
		c0.1,0.1,0.1,0.1,0,0.5c-0.1,0.3-0.5-0.3-0.6-0.6c0-0.1,0-0.1,0-0.2c0-0.1,0.2-0.4,0.4-0.4c0.1,0,0.2-0.2,0.2-0.4c0,0,0,0,0,0
		c0.3,0.1,0.4-0.3,0.5-0.5c0-0.2,0.2-0.1,0.3-0.1c0.1,0,0.3-0.1,0.5-0.1c0.2,0,0.3-0.1,0.3-0.3c0-0.1,0-0.4,0-0.5s0.1-0.4,0.1-0.4
		l-0.3,0.3c0,0-0.3,0.3-0.5,0.4c-0.2,0.1-0.3,0.1-0.4,0.2c0,0.1-0.4,0.4-0.7,0.3c0,0,0,0-0.1,0c0,0,0-0.1,0-0.1
		c-0.1-0.2,0.2-0.3,0.2-0.3s0.3-0.2,0.4-0.3c0.1-0.1,0.3-0.1,0.5-0.2c0.2-0.1,0-0.1,0-0.3c0-0.1,0.1-0.5,0.1-0.5s-0.3,0.2-0.4,0.4
		c-0.1,0.2-0.2,0.3-0.5,0.5c-0.1,0.1-0.2,0.1-0.3,0.1c0,0,0-0.1,0-0.1c0-0.1,0.2-0.2,0.2-0.2c0.1,0,0-0.2,0.1-0.4
		c0.1-0.2,0.5-0.5,0.6-0.5c0,0,0.1-0.1,0.2-0.1c0.1-0.1,0.2-0.2,0.3-0.2c0.1,0,0.3-0.1,0.5-0.1c0.2,0,0.5-0.1,0.5-0.4
		c0.1-0.3,0-0.3,0-0.3s-0.4,0.3-0.6,0.5c-0.1,0-0.1,0-0.2,0c-0.2,0-0.3-0.1-0.3-0.2c0-0.1,0.3-0.2,0.3-0.2c0.1,0,0.3,0,0.4-0.1
		s0.4-0.4,0.7-0.4c0.3-0.1,0.5,0,0.5,0s-0.1,0.4-0.1,0.6c0,0.3,0.3,0.3,0.3,0.3s0-0.4,0-0.6c0-0.2,0.2-0.2,0.3-0.3h0c0,0,0,0,0,0
		c0.1,0,0.1,0,0.1,0l0,0C35,9,35.1,9,35.2,9c0,0,0,0.1,0,0.1l-0.1,0.1c0,0-0.1,0.2-0.1,0.3c0,0.1-0.1,0.5-0.1,0.7
		c0,0.2,0.2,0.3,0.2,0.3s0-0.2,0-0.4c0-0.2,0.1-0.5,0.1-0.7c0-0.1,0-0.1,0.1-0.2c0.1,0,0.2,0,0.3,0c0,0,0.1,0,0.1,0.1l-0.1,0
		c0,0-0.1,0.1-0.1,0.1c0,0.1,0,0.2,0,0.4s-0.1,0.5-0.1,0.5l0.3-0.3c0,0,0.2-0.4,0.3-0.5c0,0,0.1-0.1,0.1-0.1c0.1,0,0.3,0,0.4,0
		c0.1,0.1,0.4,0.2,0.5,0.3c-0.1,0-0.3,0-0.5,0c-0.2,0.1-0.7,0.8-0.7,0.8l0.8,0.1c0,0,0-0.1-0.2-0.2c-0.2-0.1,0-0.1,0.1-0.3
		c0.1-0.1,0.2,0,0.2,0s0.1-0.1,0.2-0.1c0.1-0.1,0.4,0,0.4,0l0.1-0.1c0,0-0.1,0.1-0.1,0.3c0,0.1,0,0.2,0,0.3c0,0.1-0.1,0.2-0.1,0.3
		c0,0.1-0.2,0.3-0.3,0.4C36.6,11.1,36,11,36,11s0.5,0.3,0.6,0.3c0,0,0.1,0,0.2,0c0,0.1,0.1,0.1,0.2,0.2c0,0,0,0.1,0,0.1
		c0,0.1,0,0.2,0.1,0.4c0,0,0,0,0,0c-0.1-0.1-0.4-0.1-0.4-0.1s-0.9,0.2-1.1,0.4c-0.2,0.1-0.2,0.2-0.2,0.3c0,0.1,0,0.8,0,0.9
		s0.2,0.2,0.2,0.2s-0.2,0.2-0.3,0.2c-0.1,0-0.2-0.1-0.2,0c0,0.1,0.1,0.3,0.2,0.3c0.1,0,0.2-0.1,0.4-0.1c0,0,0.1,0,0.1,0l0.1,0.2
		c0,0.1-0.1,0.2-0.1,0.2c-0.1,0-0.5-0.3-0.5-0.3s0.1,0.2,0.2,0.2l-0.2,0L35,14.2c0,0-0.2,0-0.4,0c-0.2,0-0.3,0-0.4,0.2
		c-0.1,0.2-0.1,0.2-0.4,0.5c-0.3,0.3-0.2,0.5-0.2,0.9c0,0.4,0.1,0.5,0,0.6c-0.1,0-0.1,0-0.1,0s-0.2,0.1-0.3,0.3
		C32.8,17,32.8,17,32.6,17c-0.2,0-0.2,0-0.4,0.1c-0.2,0.1-0.4,0.6-0.4,0.6s0.4-0.1,0.5,0C32.4,17.8,32.4,18,32.2,18.3
		C32.3,18.2,32.2,18.2,32.2,18.3z M32.5,19.5c-0.1-0.1-0.3-0.3-0.3-0.4c0-0.1,0.1-0.3,0.1-0.3l0.1-0.3c0.1-0.1,0.1-0.2,0.2-0.3
		c0-0.2-0.1-0.3-0.1-0.3s-0.3-0.2-0.2-0.2c0.1,0,0.3,0,0.6,0.1c0.3,0.1,0.2-0.1,0.2-0.3c0-0.2,0.2-0.3,0.2-0.3s0.1-0.1,0.3-0.2
		c0.2-0.1,0.2-0.1,0.2-0.2c0-0.1-0.1-0.3,0-0.7c0.1-0.4,0.1-0.2,0.2-0.4c0.1-0.2,0.4-0.4,0.5-0.5c0.1-0.1,0.1-0.1,0.1-0.3
		c0,0,0.2,0,0.5,0c0.2,0,0.6,0,0.6,0l0.1,0.1c-0.1,0-0.2,0-0.3,0c-0.2,0-0.6,0-0.6,0c-0.1,0-0.2,0.2-0.2,0.3c0,0.1,0.2,0,0.5,0
		c0.3,0,0.3,0,0.5,0c0.2,0,0.3,0.2,0.4,0.2c0.1,0,0.2,0.2,0.3,0.2c0.1,0,0.2,0,0.2,0c0.1,0,0.1,0.2,0.1,0.4c0,0.2-0.1,0.5,0,0.5
		c0.1,0,0.1-0.3,0.1-0.3s0.1,0.1,0.2,0.2c0.1,0.1,0,0.3,0.3,0.6c0.3,0.3,0.6,0.3,0.6,0.3s-0.1-0.1-0.2-0.2l0.3,0.3
		c0,0.1,0.2,0.3,0.4,0.5c0,0,0.1,0.2,0,0.4c-0.1,0.1-0.2,0.1-0.3,0.1C38,18.2,37.9,18,37.9,18c0-0.1-0.1-0.3-0.2-0.5
		c-0.1-0.2-0.3-0.2-0.3-0.3c-0.1,0-0.5-0.1-0.5-0.1s-0.2-0.4-0.3-0.6c-0.2-0.2,0-0.4-0.1-0.7c-0.1-0.3-0.2-0.2-0.4-0.2
		c-0.1,0-0.2,0-0.2,0.1c0,0.1,0.1,0.3,0.1,0.3l0.2-0.1c0,0,0,0.3,0.1,0.6c0.1,0.4,0.2,0.7,0.4,1c0.1,0.3,0,0.5,0,0.6
		c0,0.1-0.2,0.1-0.5,0.3c-0.2,0.1-0.3,0.1-0.6,0.2c-0.3,0.1-0.5,0-0.5,0s0.1,0.3,0.2,0.3c0.1,0.1,0.2-0.1,0.5-0.1
		c0.3,0,0.5,0.1,0.5,0.1s0,0,0,0c0,0.1,0.1,0.3,0.1,0.4c0,0.2-0.2,0.4-0.2,0.2c0-0.1-0.1-0.3-0.3-0.4c-0.2-0.1-0.5-0.1-0.4,0
		c0.1,0.2,0,0.3-0.2,0.3c-0.2,0-0.1-0.2-0.2-0.5c-0.1-0.2-0.2-0.4-0.3-0.5c0.1-0.4,0.3-0.1,0.3-0.3c0-0.2,0.2-0.3,0.4-0.3
		c0.1,0,0.2,0,0.3,0c0,0,0,0.1,0.1,0.1c0.1,0.2,0.2,0,0.2-0.1c0-0.1,0.3-0.2,0.3-0.2c0-0.1,0-0.3-0.2-0.4c-0.1-0.1-0.2-0.6-0.2-0.6
		s-0.1,0.5-0.1,0.5c-0.1,0-0.2-0.1-0.3-0.2c0-0.1,0.1-0.2,0.1-0.3c0.1-0.2,0,0,0.2-0.1c0.2-0.1,0-0.3,0-0.4c0-0.1,0-0.2-0.2-0.2
		c-0.2,0-0.3-0.3-0.3-0.4c0-0.1,0.1-0.4,0-0.5c0-0.1-0.2,0.1-0.2,0.1s0,0.4,0,0.7c0,0.3,0.2,0.2,0.2,0.4c0,0.2,0,0.1-0.1,0.2
		c-0.1,0.1-0.1,0.3-0.2,0.5c-0.1,0.2-0.3,0.2-0.4,0.6c-0.1,0.3,0,0.4,0.1,0.6c0,0.1-0.1,0.1-0.2,0.2s-0.1,0.1-0.1,0.3
		c0,0.1,0,0.2-0.1,0.3c0-0.1-0.1-0.1-0.1-0.3c0-0.3-0.1-0.4,0-0.6c0.1-0.2,0-0.4,0-0.4s-0.1,0-0.2,0.1c-0.1,0.1-0.3,0.3-0.3,0.3
		c0,0.1-0.3,0.1-0.1,0.3c0.2,0.2,0.3,0.4,0.2,0.5c-0.1,0.1-0.6,0-0.6,0c-0.1,0-0.1,0.2-0.1,0.2c0,0.1,0,0.2,0,0.3S33.1,20,33,19.9
		c-0.1-0.1-0.2-0.3-0.2-0.4c0,0,0.1-0.4,0.2-0.5c0,0,0.3-0.1,0.4-0.3c0.1-0.2,0.1-0.3,0.1-0.4c0-0.2,0.2-0.1,0.6-0.4
		c0.3-0.3,0.3-0.1,0.3-0.1s0.1-0.2,0.3-0.5c0.1-0.3,0.2-0.2,0.2-0.3c0-0.1,0.1-0.3,0-0.5c-0.1-0.2-0.2-0.4-0.2-0.4s0.2,0.5,0.1,0.8
		c-0.1,0.3-0.1,0.1-0.2,0.4c-0.1,0.3-0.3,0.3-0.6,0.4c0.1-0.3,0.3-0.8,0.3-1.1c0-0.5,0.1-1.1,0.1-1.1s-0.3,0.6-0.3,0.9
		c0,0.3-0.2,0.7-0.2,0.7l-0.6,0.9c-0.2,0.1-0.2,0.3-0.2,0.5c-0.1,0.3-0.1,0.2-0.4,0.2c-0.3,0-0.2,0.4-0.2,0.4s0.3-0.1,0.4,0
		c0.1,0,0,0.1,0,0.2C32.8,19.4,32.6,19.5,32.5,19.5z M37.2,19.6C37.2,19.6,37.1,19.5,37.2,19.6c0-0.1-0.5-0.2-0.7-0.4
		c-0.1,0-0.1-0.1-0.2-0.2c0,0,0-0.1,0-0.1c0-0.2,0.1-0.2,0.1-0.3c0.1-0.1,0.4,0,0.5,0.1c0.1,0.1,0.4,0.1,0.4,0.1s0,0,0-0.1l0.1,0
		c0,0,0,0.1,0,0.1c0.1,0,0.1,0,0.2,0c0,0.2-0.1,0.4-0.2,0.6C37.5,19.6,37.3,19.6,37.2,19.6z M37.2,20.3
		C37.2,20.3,37.2,20.3,37.2,20.3c-0.2,0.1-0.3,0.1-0.3,0.1s0,0-0.2-0.1c-0.1-0.1-0.3-0.1-0.5-0.1c0,0,0-0.1,0-0.1s0.4,0,0.4-0.1
		c0-0.2,0-0.4,0-0.4s0.3,0.2,0.5,0.3C37.3,20,37.3,20.2,37.2,20.3z M37.5,17.5c0.1,0.1,0.2,0.2,0.3,0.3c0,0.1,0,0.4-0.2,0.5
		c-0.1,0.1-0.2,0.1-0.2,0c0-0.1,0-0.1-0.1-0.2c-0.1-0.4-0.1-0.4-0.2-0.6C37,17.3,37.2,17.4,37.5,17.5z M34.6,20.3
		C34.5,20.3,34.5,20.3,34.6,20.3c-0.4,0-0.6-0.1-0.7,0c-0.1,0-0.1,0.1-0.2,0.2c-0.1,0.2-0.2,0.2-0.2,0.2c0,0,0-0.1-0.1-0.1
		c0,0,0,0,0,0s-0.1-0.2,0-0.5c0.1-0.3,0.1-0.1,0.3-0.1c0,0,0.2,0,0.4-0.2c0,0,0.1,0,0.1,0l0,0c0.1,0,0.1-0.1,0.1-0.1
		c0.1-0.1,0.1-0.2,0.1-0.2l0.1,0c0,0,0.1-0.1,0.2-0.2c0,0.1,0.1,0.1,0.1,0.2c0,0.2,0,0.3,0,0.5c0.1,0.2,0.2,0,0.7,0
		c0.5,0,0,0.2-0.2,0.4c-0.2,0.2-0.3,0.2-0.4,0.1C34.9,20.4,34.8,20.3,34.6,20.3z M34.5,20.9c0,0-0.1,0.1-0.1,0.1c-0.1,0-0.2,0-0.3,0
		c-0.4,0-0.4-0.1-0.2-0.1c0.1,0,0.4-0.2,0.5-0.3c0.1,0,0.1,0,0.2,0C34.7,20.6,34.7,20.8,34.5,20.9z M22.9,20.1
		c0.1,0.4,0.3,2.2,0.3,2.7c0,0.5-0.3-0.1-0.6-0.2c-0.1,0-0.1,0-0.2,0c0-0.1,0-0.2,0-0.4c-0.1-0.9-0.1-0.7-0.1-0.8
		c0-0.1,0.4,0,0.6,0.1c0.2,0-0.1-0.2-0.3-0.2c-0.2,0-0.3-0.3-0.3-0.4c0-0.1,0-0.8,0-1c0-0.1,0-0.1,0-0.2
		C22.4,19.8,22.8,19.9,22.9,20.1z M21.7,23.2c0.1,0,0.1-0.1,0.2-0.1c0.1,0,0.2,0,0.4,0c0.3,0.1,0.7,0.4,0.9,0.4c0.2,0,0,0.2-0.5,0.5
		c-0.1,0-0.3,0-0.5-0.2C21.7,23.5,21.6,23.3,21.7,23.2z M20.7,20.4c-0.1-0.2-0.2-0.6-0.3-0.8c0.1,0.1,0.2,0.1,0.3,0.2
		c0.1,0.3,0.1,0.6,0.1,0.7c0,0.1-0.1,1-0.1,1.1c0,0-0.2,0.3-0.4,0.6c0.1-0.3,0.3-0.8,0.3-1C20.7,20.8,20.8,20.7,20.7,20.4z
		 M20.7,22.2c0-0.1,0.4-0.6,0.4-0.6S21,20.9,21,20.6c0-0.2,0-0.5,0-0.7c0.1-0.1,0.2-0.1,0.3-0.2c0.1,0.2,0.2,0.5,0.2,1
		c0.1,0.8,0.2,1.8,0,2.1c-0.1,0.1-0.8,0.5-1.3,0.8c0,0-0.1-0.1-0.1-0.1c0-0.1,0-0.4,0.1-0.7C20.5,22.5,20.6,22.3,20.7,22.2z
		 M18.9,19.6l0.4,0.2c0,0,0,0.3,0.1,0.5c0,0.1,0,0.2-0.1,0.3c-0.1,0-0.2,0-0.4-0.1c-0.2-0.1-0.3-0.3-0.3-0.4c0,0,0-0.1,0-0.1
		c0-0.2,0-0.3,0-0.5L18.9,19.6L18.9,19.6z M19.2,21c0,0.1,0,0.1-0.1,0.2c0,0-0.1,0-0.2,0c-0.1,0-0.3-0.1-0.4-0.2
		c0.1-0.1,0.1-0.2,0.1-0.2L19.2,21z M18.8,19.2l0.1,0.2l-0.3-0.1c0-0.2,0-0.3-0.1-0.4C18.6,19.1,18.7,19.1,18.8,19.2z M18.4,20.2
		l-0.6-0.3c0-0.1,0-0.1,0-0.2l0.5,0.3l0.1,0C18.4,20,18.4,20.1,18.4,20.2z M17.7,20.4c0-0.1,0.1-0.1,0.1-0.2l0.6,0.3
		c0,0.1,0,0.2-0.1,0.3L17.7,20.4z M18.3,20.9c0,0.1-0.1,0.1-0.1,0.2l-0.6-0.4c0,0,0.1-0.1,0.1-0.1c0,0,0,0,0,0L18.3,20.9z
		 M17.8,20.1c0-0.1,0-0.1,0-0.2l0.6,0.3c0,0.1,0,0.1,0,0.2L17.8,20.1z M18.4,19.9l-0.6-0.3c0-0.1,0-0.1,0-0.2l0.5,0.3l0,0
		C18.4,19.7,18.4,19.8,18.4,19.9z M18.3,19.1c0,0.1,0.1,0.3,0.1,0.4c0,0,0,0,0,0l-0.6-0.3c0-0.1-0.1-0.3-0.1-0.4L18.3,19.1
		L18.3,19.1z M18.3,19l-0.6-0.3c0-0.1-0.1-0.2-0.1-0.3l0.5,0.3C18.1,18.7,18.2,18.9,18.3,19z M17.7,18.3l-0.2-0.1c0,0,0,0,0-0.1
		C17.6,18.2,17.6,18.3,17.7,18.3z M17.5,20.8l0.7,0.4c0,0.1-0.1,0.1-0.1,0.2l-0.4-0.2C17.6,21,17.5,20.9,17.5,20.8
		C17.5,20.8,17.5,20.8,17.5,20.8z M13.6,20.5c0-0.1,0-0.1-0.1-0.2c0-0.2-0.1-0.5-0.1-0.7c0.1-0.6,0.5-1.2,0.8-1.7
		c0.4-0.6,1-0.7,1.4-0.7c-0.4,0-1,0.2-1.7,1.3c-0.6,1-0.2,2,0,2.3C13.8,20.7,13.7,20.6,13.6,20.5z M16.5,18.4c0,0-0.2,0.2-0.4,0.5
		c-0.1-0.2-0.4-0.5-0.7-0.4c-0.3,0.1-0.5,0.6-0.6,0.7c0-0.1,0.2-0.4,0.6-0.5c0.2,0,0.3,0,0.4,0.1c0,0.1,0.1,0.3-0.1,0.7
		c-0.3,0.6-0.8,0.4-0.8,0.4s0.4,0.1,0.8-0.1c0,0,0,0,0,0c0,0.1,0,0.2,0,0.3c0,0.1,0,0.1,0,0.2c-0.2,0.2-0.2,0.5-1,0.2
		c-0.1-0.2-0.3-0.4-0.3-0.7c-0.1-1.2,0.4-1.6,0.4-1.6s-0.9,0.4-0.7,1.5c0,0.2,0.1,0.4,0.2,0.6c-0.3-0.2-0.5-0.5-0.6-0.7
		c0-0.3,0.1-0.7,0.3-1.1c0.2-0.3,0.4-0.6,0.6-0.8c0.3-0.1,1.1-0.4,1.6,0c0.3,0.2,0.4,0.5,0.4,0.8L16.5,18.4z M16.7,23.1
		c0-0.1,0-0.1,0.1-0.2c0.1-0.2,0.3-0.3,0.4-0.3l0.4,0.2c-0.1,0-0.3,0.1-0.5,0.2c-0.1,0.1-0.2,0.2-0.2,0.3
		C16.9,23.2,16.8,23.1,16.7,23.1z M17,23.8c0-0.1,0-0.1,0-0.2c0-0.1,0.1-0.2,0.1-0.3c0.2-0.1,0.5-0.3,0.6-0.4c0.2,0,0.3-0.1,0.4-0.1
		l0.3,0.1l0,0h0l0.1,0c-0.2,0.1-0.7,0.3-0.8,0.3C17.5,23.5,17.2,23.7,17,23.8z M19,25.5c-0.1,0-0.2,0-0.3,0
		c-0.1-0.1-0.3-0.2-0.4-0.2c-0.2-0.1-0.3-0.2-0.4-0.5c0,0,0,0,0,0c0.1-0.1,0.3-0.2,0.5-0.3c0.2,0,0.5,0.1,0.7,0.1
		c0.3,0.1,0.2,0.3,0.3,0.8C19.3,25.4,19.2,25.5,19,25.5z M19.6,23.8l-1.5,0.5c0,0,0,0,0,0l-0.3,0.1c0,0-0.2,0.5-0.5,0.3
		c-0.2-0.1-0.2-0.3-0.2-0.4c0.2-0.2,0.6-0.6,0.9-0.7c0.4-0.2,0.7-0.1,0.8-0.1C18.9,23.5,19.4,23.7,19.6,23.8
		C19.6,23.8,19.6,23.8,19.6,23.8z M19.5,21.5c-0.1,0-0.2-0.2-0.3-0.2c0.1-0.1,0.1-0.3,0.1-0.3c0.1-0.1,0.2-0.3,0.2-0.6
		c0-0.2,0-0.3,0-0.4c0,0,0.1,0.1,0.1,0.1c0.1,0.2,0.2,0.4,0.2,0.6c0,0.1,0,0.3,0,0.4c0,0.1,0,0.2-0.1,0.4
		C19.6,21.5,19.5,21.5,19.5,21.5z M19.7,21.9c0.2-0.3,0.2-0.6,0.3-0.8c0-0.1,0.1-0.3,0.1-0.5c0-0.7-0.4-1.1-0.4-1.1
		s-0.1-0.1-0.2-0.2c0,0,0.1-0.1,0.1-0.1c0.1,0,0.2,0,0.3,0c0.1,0.2,0.2,0.5,0.3,0.7c0.1,0.4-0.1,1.6-0.2,1.9L19.7,21.9z M30.9,27.5
		c-0.2,0.2-0.5,1-0.8,1.4c-0.2,0.4-0.3-0.3-0.2-1c0.1-0.7,0.4-1.4,0.2-1.3c-0.1,0-0.3,0.4-0.5,0.8c-0.4,0.5-1.2,1.3-1.4,1.7
		c-0.3,0.6-0.6,1-0.6,1.2c0,0.2-0.7,0-0.5-0.7c0.2-0.6,1.5-2.1,1.5-2.1s-0.2,0.1-0.3,0.3c0-0.1,0.1-0.1,0.1-0.1s-0.2,0.2-0.4,0.3
		c-0.2,0.1-1.3,1.7-1.8,1.5c-0.1,0-0.2-0.1-0.3-0.2c0-0.3,0-0.6,0.1-0.8c0.2-0.7,0.2-0.9,0.2-0.9s-0.5,0-1.2-0.2
		C24.4,27,24,26.9,24,26.9s1,0.6,1.2,1.4c0.2,0.7,0.5,1.5,0.4,1.7c0,0.3-0.4,0.3-1.2,0c-0.7-0.2-1-0.7-2.1-1.5
		c-1-0.8-2.1-2.2-2.3-2.5C20,25.9,20,25.7,20,25.6c0.3-0.2,0.9-0.5,1.4-0.7l0,0c0.1,0.1,0.2,0.2,0.4,0.3c0.7,0.5,1.3,1.2,2.4,1.3
		c1.1,0.2,2,0.6,2.4,0.9c0.4,0.3,0.4,0.3,0.4,0.3l0.3,0c0,0,0.2-1.3,1-2c0.7-0.6,1.6-1.1,1.8-1.2c0.2,0.1,0.3,0.1,0.4,0.2
		c0.1,0.2-0.1,1-0.1,1s-0.2,0.2-1.2,0.6c-0.9,0.4-0.4,0.6-0.8,0.8c-0.5,0.2-1.2,0.7-1.2,0.9s0.5-0.1,1.2-0.3
		c0.7-0.2,0.4-0.2,0.9-0.7c0.5-0.6,0.9-0.7,1.2-0.8c0.3-0.1-0.1,0.5,0,0.7c0.1,0.2,0.4,0.3,0.7,0.5C31.5,27.5,31.2,27.2,30.9,27.5z
		 M31.7,31.1c-0.2-0.3-0.3-1-0.3-1.4c0,0,0,0,0.1,0c0.2,0.1,0.2,0.2,0.3,0.2c0-0.1,0.1-0.4,0.1-0.5c0-0.2,0.3-0.4,0.7-0.7
		c0.5-0.3,0.9-0.4,1.4-0.8C34.4,27.7,34,27,34,27s-0.2,0.7-0.6,1c-0.4,0.2-0.7,0.6-1.4,0.9c-0.4,0.2-0.6,0-0.6-0.2l0-0.7
		c0,0,0.3-0.5,0.8-0.7c0.5-0.2,0.7-0.2,1.2-0.5c0.5-0.2,0.8-0.8,0.8-0.8s-0.1-0.2,0-0.9c0.1-0.7,0.2-1.1,0.2-1.1s-0.3-0.5-0.5,0
		c-0.2,0.5-0.2,1-0.4,1.5c-0.2,0.5-0.4,0.5-1.4,0.7c-1,0.2-1,0.8-1.3,0.7c-0.2-0.2-0.2-1.4-0.2-1.5s0.1-0.8,0-1
		c-0.1-0.1-0.2-0.2-0.4-0.3l-0.1-0.4c0,0.1,0,0.2-0.1,0.3c-0.2,0.2-0.3,0-0.3-0.4c0-0.4,0.5-1.5,0.8-2.1c0.4-0.6,1-1.1,1.4-1.2
		c0.1,0,0.1,0,0.2,0c0,0,0,0,0,0c0,0.1,0.1,0.2,0.4,0.2c0,0,0,0,0,0c-0.3,0.1-0.5,0.3-0.7,0.5c-0.3,0.5-0.7,1.2-0.7,1.2
		s0.8-0.8,1.3-1.1c0.3-0.2,0.6-0.2,0.7-0.2c-0.1,0.1-0.2,0.2-0.1,0.3c0.1,0,0.6,0.1,0.6,0.1s0,0.1,0.2,0.1c0.2,0,0.7-0.2,0.7-0.2
		c0.3,0,0.4,0,0.5-0.1c0.1,0,0.3-0.1,0.5-0.4c0.2-0.3,0.2-0.2,0.3-0.3c0,0,0.3,0,0.5,0c0.2,0,0.1,0.2,0.1,0.3
		c0.1,0.1,0.4,0.2,0.5,0.2c0.1,0,0.2-0.2,0.4-0.3c0.2-0.1,1.2-0.4,1.4-0.4c0.2,0,1.1,0.7,1.1,0.7s-0.5-0.5-0.3-1.1
		c0.1-0.7,1.4-0.7,1.4-0.7s-0.9-0.3-1.4-0.2c0,0,0,0-0.1,0c0.1-0.1,0.2-0.3,0.2-0.3c0-0.1,0.1-0.3,0.3-0.3c0.2,0,2.1,0.6,2.1,0.6
		s0.3,0,0.7-0.1c0.3,0.2,1.3,0.7,1.8,1.4c0.6,0.8,0.5,2.8,0.5,2.8s0.3-1.2,0.2-2c-0.1-0.6-0.7-1.4-0.9-1.8c0.5,0.3,1.1,0.9,1.5,1.4
		c0.6,0.8,0.5,1.8,0.5,3c0,0,0,0,0,0c-0.1,0.1-0.2,0.1-0.3,0.2c-0.8,0.4-1.2,0.8-1.2,0.8s0.5,1.6,0.7,2c0.2,0.3,0.6,1,0.7,1.3
		c0,0.3-0.6,1.4-0.6,1.4l-0.5,0.4c-0.3-0.3-0.7-1-1.2-1.8c-0.7-1.1-1.3-2.7-1.5-3.2l0-0.5l1.2-0.1c0,0-0.4-0.5-1.3-0.7
		c-0.9-0.3-1-0.6-1-0.6s0,0.2-0.1,0.4c-0.1,0.2-0.2,0.4-0.4,0.6c-0.2,0.2-0.3,0.3-0.5,0.4c-0.1,0-0.1,0.1-0.2,0.1
		c-0.1,0-0.1,0.1-0.2,0.1c-0.1,0-0.2,0.1-0.4,0.1c-0.9,0.2-2.1,0.9-3.1,1.2c-1,0.2-1.7-0.3-1.7-0.3l-0.1,0.3c0,0,0,0.3,0.4,0.7
		c0.4,0.4,0.7,0.5,1.7,0.5c1,0,1.8,0,2.5-0.1l0.2,0.5c0,0-0.2,0.4-0.3,1c0,0.2-0.2,0.5-0.4,0.6c-0.5,0.1-1,0.1-1,0.1
		s-1.7-0.6-2.3-0.7c-0.6-0.1-0.7-1-0.7-1s-0.1,0.8-0.1,1c0,0.2,0.5,0.5,1.2,0.5c0.7,0.1,1.3,1,1.3,1s-0.1,0.4-0.6,0.7
		c-0.5,0.2-1.1,0.2-1.6,0.2c-0.5,0-0.9-1.5-0.9-1.5s-0.1,0.5-0.1,1c-0.2,0.1-0.6,0.4-1.3,0.5c-0.9,0-0.6,0.2-0.7,0.5
		C32,31.5,32,31.5,31.7,31.1z M32.3,32.6c-0.1-0.1-0.1-0.2-0.1-0.3c0,0,0,0,0,0s0.2-0.6,0.5-0.8c0.2-0.2,1.1-0.3,1.5-0.4l0,0.3
		c0,0-0.2,0.7-0.2,1c0,0.2,0.2,0.4,0.3,0.6c-0.4,0-1,0.1-1.8,0.3l0.3-0.1C32.9,33.1,32.5,32.8,32.3,32.6z M31.8,32.7l0.2-0.6
		c0,0.2,0.1,0.5,0.1,0.7c0.1,0.3,0.2,0.4,0.2,0.4c-0.1,0-0.2,0-0.2,0.1c-0.2,0.1-0.5,0.1-0.7,0.2C31.5,33.3,31.8,32.7,31.8,32.7z
		 M28.6,35.5c0.7-0.4,1.5-0.9,1.8-1.2c0,0,0,0,0.1-0.1c0.5-0.3,1.2-0.7,1.7-0.8c0.9-0.2,2.2-0.5,3-0.4c0.8,0.1,2.9,1.4,4.2,2.6
		c1,0.9,2.5,2.6,3.2,3.4c0.1,0.3,0.5,0.6-0.1,0.7c0,0-0.1,0-0.1,0c-0.4-0.5-1.3-1.5-2.7-3c-2-2.1-3.1-3-3.1-3s3,3.3,3.8,4.5
		c0.7,1,0.9,1.3,0.9,1.4c-0.6,0-1.1-0.1-1.3-0.3c-0.1-0.1-0.2-0.2-0.4-0.3c0.1-0.1,0.2,0,0.2,0s-1.4-1.5-1.9-2.4
		c-0.5-0.9-1-1.5-1.9-2.4c-0.9-0.9-2.1-1-2.1-1s1.2,0.3,2.5,1.5c1.2,1.2,2.1,3.4,3.2,5.5c1.2,2.1,1.4,2.2,1.4,2.2s-0.7,0.1-0.9,0.1
		c-0.2,0-1,0.1-1,0.2c-0.2-0.1-0.9-0.3-1.2-0.9c-0.3-0.6-0.2-1-0.7-1.7c-0.5-0.7-1.7-4.1-1.7-4.1c-0.1-0.2-0.3-0.4-0.5-0.5
		c-0.2-0.4-0.4-0.7-0.6-0.9c-0.2-0.2-0.5-0.5-0.8-0.6c0.2,0,0.4-0.1,0.5-0.1c0.2,0,0.1-0.2-0.2-0.4c-0.4-0.2-1-0.2-2,0.2
		c-0.9,0.4-1.2,0.5-1.2,0.5l-0.2,0.1c0,0,0.7,0,1.8-0.1c0.8-0.1,1.4-0.2,2,0.7l0,0c0,0,0,0,0,0.1c0,0.1-0.7,0.9-0.9,1
		c-0.2,0.1-0.8-0.9-1.1-0.9c-0.3,0-0.9-0.1-1.2,0c-0.3,0.1-1,0.3-1.2,0.7c-0.2,0.4-0.4,0.6-0.6,0.9c-0.2,0.3,0.1,0.4,0.4,0.5
		c0.3,0.1,0.5,0.4,0.5,0.4s0-0.2-0.1-0.7c-0.1-0.5,0.2-0.8,0.4-1s1.7,0.2,2,0.4c0.3,0.2,1,0.1,1.7,0.2c0.4,0.1,0.8,0.1,1,0.1
		c0.3,0.9,0.4,1.7,0.5,2.5c-0.3-0.2-0.9-0.6-1.4-0.9c-0.5-0.3-0.8-0.9-1.4-1.1c-0.7-0.2-1.2-0.5-1.4,0.3c-0.2,0.8-0.6,1.1-0.7,1.1
		c-0.1,0-0.5-0.5-0.8-0.1c-0.3,0.3-0.5,0.6-0.3,1c0.2,0.4,0.2,1.3,0.2,1.3s0.4-1.6,0.5-1.7c0.1-0.1,0.6,0,0.6,0s0.2-0.3,0.4-0.2
		c0.2,0.1,0.4,0.5,0.4,1.2c0,0.7,0.3,2.4,0.3,3.4c0,1.1-0.7,1.2-0.6,2.6c0,1.4,0.2,2.3,0.4,2.5c0.2,0.2,0.8-3.6,0.7-4.6
		c-0.2-1-0.5-4.3-0.6-4.7c-0.1-0.5-0.2-0.9,0-1c0.2-0.1,0.5-0.1,0.6,0.4c0,0.3,0.4,1,0.6,1.6c0,0.1,0,0.1,0,0.2
		c0,0.2,1.4,2.8,1.5,3.2c0.1,0.5-0.5,6.3-0.7,7.5c-0.2,1.1,0.5,2,0.2,3c-0.3-0.6-0.8-1.7-0.7-2.8c0.1-1.8,0.6-2.7,0.6-2.9
		c0-0.3-0.1-4.9-0.2-5.3c-0.1-0.5-0.7-1.6-0.7-1.6s0.1,1.7,0.2,2.8c0.2,1,0.5,3.6,0.5,4c-0.1,0.5-0.7-1.8-0.8-2.3
		c-0.2-0.5-0.2-0.5-0.2-0.5s0.2,5.2,0,5.9c-0.2,0.5-0.3,0.7-0.3,0.9c-0.2,0.2-0.6,0.6-0.7,0.7c-0.2,0.2-0.5,0.2-0.9,0.5
		c-0.1,0.1-0.2,0.2-0.3,0.2c0.2-1,0.6-3.1,0.4-4.4c-0.2-1.7-1-3.2-1.4-4.6c-0.3-1.4-0.5-2.9-0.5-2.9l-0.4-1.3
		c0.3,0.3,0.5,0.5,0.5,0.5s-0.3-1.5-0.8-1.9c-0.5-0.4-0.7-1-0.7-1.9C27.8,36.2,27.9,35.9,28.6,35.5z M42.4,43.8c0.2,0,0.4,0,0.6,0.1
		c0.5,0.2,1,1,1.2,1.5c-0.1,0.4-0.3,0.7-0.6,1.2c-0.4,0.5-0.8,1.1-1.2,1.7l-4.5,0.1c-0.1-0.6-0.3-1.2-0.4-1.7
		c0.1-0.2,0.2-0.3,0.5-0.4c0.1,0,0.3-0.1,0.4-0.1c0.2,0.1,0.4,0.2,0.7,0.3c0.7,0,1-0.5,1-0.5s0-0.2,0.2-0.2c0.2,0,0.7-0.1,0.9-0.5
		c0.1-0.2,0.2-0.4,0.2-0.6l1.2-0.4C42.5,44.2,42.5,44,42.4,43.8z M37.2,51.9l2.5-0.2c0,0-1.4-0.1-2.3-0.2c0.4-0.8,0.8-1.4,0.8-1.7
		c0,0,0-0.1,0-0.1c0.9,0,2.8-0.1,3.3-0.1c-0.8,1.4-1.6,3-2,4.5c-0.4-0.1-1.3-0.4-1.5-0.4c-0.2,0-1,0-1.5,0
		C36.5,53.2,36.8,52.5,37.2,51.9z M36.2,42.7c-0.1-0.8-0.2-1.8-0.3-2.3c-0.1-0.8-0.1-1.8-0.2-2.6c0.1,0.2,0.2,0.3,0.2,0.5
		c0.2,0.6,1.3,2.5,1.3,3.3c0,0.7,1.2,2.1,2.1,2.6c0.2,0.1,0.3,0.1,0.4,0.2c-0.2,0.2-0.5,0.5-0.9,0.7c-0.4,0.3-0.8,0.3-1.1,0.3
		l-0.1,0c-0.3-0.2-0.7-0.5-1-1L36.2,42.7z M33.8,38.8c0.5,0.2,1.2,0.7,1.2,0.7l0.2,0.2c-0.1,0.2-0.9,1-1.5,0.9
		c-0.3-0.1-0.5-0.4-0.5-0.7c0-0.1,0.1-0.2,0.1-0.3C33.8,39.2,33.4,38.6,33.8,38.8z M33.1,53.1c0-0.1,0.1-0.2,0.1-0.3
		c0.2,0.2,0.3,0.4,0.3,0.6c0,0.4,0.1,0.7-0.3,0.9c-0.1,0.1-0.2,0.1-0.3,0.2l-0.2-0.6C32.8,53.7,33,53.2,33.1,53.1z M32.5,53.5
		c-0.2,0.4-0.5-0.1-0.4-0.6c0.1-0.3,0.3-0.5,0.6-0.6c0,0,0,0,0,0c0,0,0,0,0,0C32.7,52.7,32.6,53.4,32.5,53.5z M29,44
		c-0.3,0.1-0.9,0.2-1.5,0.3c-0.4,0-0.7,0.1-0.9,0.2c0.3-0.5,0.8-1.1,1.3-1.3c0.5-0.2,0.8-0.4,0.9-0.4C28.9,43.2,28.9,43.6,29,44z
		 M27.5,37.3c0,0.2,0.1,0.6,0.1,1c0,0.5,0.2,1,0.5,1.2c0,0,0,0,0,0c-0.1,0.5-0.6,1.7-1.4,3c-1,1.6-1.8,2.3-2.7,2.9
		c-0.9,0.6-1.5,1.1-1.6,1.4c-0.1,0.3,0.7,0.6,0.3,1.7c-0.4,1.2-0.2,1.9-0.5,1.8c0,0-0.1,0-0.1-0.1c-0.2-0.4-0.5-0.8-0.4-1.1
		c0.1-0.5,0.1-0.5,0.1-0.5l-0.1-0.1c0.1,0,0.2,0,0.2,0s-0.3-0.9-0.3-1.2c0-0.3,0.2-1.4,0.3-1.9c0.1-0.6,1.2-1.9,2.5-3.8
		C25.8,39.9,27.5,37.3,27.5,37.3z M20.7,47.6c0.1,0.1,0.2,0.1,0.3,0.2c-0.1,0.8-1.7,0.6-1.9,0.5c-0.1,0-0.2-0.1-0.3-0.1l1.3-0.6
		C20.1,47.7,20.4,47.4,20.7,47.6z M20.6,47c0.1-0.1,0.2-0.2,0.3-0.2c0.1-0.1,0.2-0.1,0.3-0.1c0,0.2-0.1,0.4-0.1,0.6L20.6,47z
		 M20.2,48.9c0.2-0.1,0.6-0.2,1-0.2c0.1,0.1,0.2,0.3,0.3,0.6c0.2,0.6,0.2,0.8,0.2,0.8s0.1,0.7-0.1,1.4c-0.1,0.3-0.2,0.4-0.3,0.3
		c0,0,0,0,0,0c-0.5-0.5-1-1.4-1.4-2C19.9,49.4,19.9,49.1,20.2,48.9z M18.2,48c-0.1,0-0.3,0.2-0.5,0.4c-0.2-0.3-0.3-0.6-0.4-1
		c-0.2-0.9,0.6-2.2,1-2.9c0.5-0.6,1.2-0.8,1.2-0.8s1.7-3.4,3.5-4.5c1.6-0.9,3.1-0.9,3.4-0.9c-1.3,1.7-3.1,4.3-4,5.4
		c-0.7,0.9-1.1,1.8-1.2,2.5c-0.1-0.2-0.2-0.4-0.2-0.5c0-0.4,0.9-2.7,0.9-2.7s-1.1,1.1-1.7,2.3c-0.6,1.2-2.1,1.1-2.1,1.1
		s-0.1,0.6,0.2,0.6c0.4,0.1,0.6-0.1,1.3-0.2c0.7-0.1,0.3,0.1-0.7,0.7C18.3,47.9,18.2,48,18.2,48z M21.7,54.5
		c-1.3-1.1-2.9-3.7-2.9-4.1c0,0,0-0.1,0-0.2c0.4,0.1,0.8,0.1,1,0c0.3,0.8,1.2,2.6,2.1,3.4c0.5,0.4,0.9,0.9,1.2,1.3l0.1,0.6
		C22.8,55.3,22.3,55,21.7,54.5z M18.6,56.5c-0.1,0-0.3,0-0.4-0.1c0.9-0.1,2.3-0.3,3-0.4c0.5,0,1.1,0,1.6,0.1
		c0.1,0.1,0.2,0.2,0.3,0.3C22.1,56.6,20.2,56.7,18.6,56.5z M23.6,61.5c-0.8,0.1-1.9,0-3.4-0.5c-3.7-1.2-5.3-1.5-5.3-1.5l-0.2,0.1
		c1.4-0.5,2.7-0.9,2.7-0.9s1.3-0.2,5,1.2c0.5,0.2,0.9,0.4,1.4,0.6C23.7,61,23.6,61.3,23.6,61.5z M23.9,59.6
		c-0.9-0.3-1.7-0.6-2.4-0.8l2.3-0.7C23.9,58.7,23.9,59.2,23.9,59.6z M24.5,56.5c0.3,0,0.6,0,1,0c0,0,0,0,0,0c0,0.1,0,0.2-0.1,0.3
		c-0.1,0.3-0.4,0.9-0.6,1.3C24.6,57.6,24.6,57,24.5,56.5z M26.6,61l-1.8,0.3c0,0,0.3-2.9,0.7-3.6c0.3-0.7,1.1-1.2,1.1-1.2
		s-0.2,0.7-0.3,2C26.1,59.7,26.6,61,26.6,61z M28.6,54.5c-0.1,0.2-0.4,0.6-0.6,0.9c-0.4,0.1-0.8,0.2-1,0.3c-0.2,0-0.5,0.1-0.8,0.2
		c-0.1,0-0.1,0-0.2,0c-0.8,0-1.3-0.1-1.6-0.1c-0.2-1.5-0.1-2.5-0.1-2.9l0.5-0.5c0,0-0.9,0.2-1-0.2c0-0.1-0.1-0.1-0.1-0.2l0.2-0.1
		c0,0-0.6-1.1-0.6-2.4c-0.1-1.2,0.2-2.1,0.2-2.1l2.6-2.1c0,0,0,0,0-0.1c0.2-0.1,0.5-0.1,0.9-0.2c1-0.2,1.7-0.3,2.1-0.4
		c0.1,0.2,0.1,0.4,0.2,0.6c0.4,0.8,1.3,2.2,1.6,3.9c-0.5,0.1-2.1,0.2-3.7,0.7c-1.9,0.6-3,1.1-3,1.1s0.6,0.3,1.4,0.3
		c0.8,0,2.2-0.6,3.3-0.7c0.5-0.1,1-0.1,1.4-0.2c0.1,0.3,0.3,0.7,0.3,0.9c0,0.4-0.2,0.7-0.3,0.7c-0.1,0-3.8,0.5-3.8,0.5s3,0,3.5,0
		c0.4-0.1,0.8,0,0.8,0c0,0.2,0,0.3-0.1,0.5c-0.1,0.1-0.4,0.8-1,1C29,54.2,28.7,54.2,28.6,54.5z M31.2,55.1c-0.3,0-0.2-0.1-0.1-0.2
		C31,55,30.7,55.1,30.4,55l-0.1,0c0-0.1,0.2-0.4,0.2-0.4L30,54.9c0,0-0.2,0.2-0.4,0.2c-0.1,0-0.3,0.1-0.4,0.1L29,55.1
		c0-0.2,0.1-0.6,0.4-0.7l1.2-0.3c0,0,0,0,0,0c0.3-0.1,0.3-0.3,0.7-0.3c0.4,0,0.5,0.1,0.9,0.3c0.4,0.2-0.1,0.7,0.1,0.7c0,0,0,0,0,0
		L32,55l0,0c0-0.1,0-0.2,0-0.2c0,0.2-0.1,0.2-0.1,0.3C31.7,55.1,31.5,55.1,31.2,55.1z M27.1,60.4c0,0.4,0.6-3.6,0.4-3.6
		c-0.2-0.1,4-0.4,4-0.4l2.3,1.4C33.9,57.7,27.1,60,27.1,60.4z M39.1,57.7c-0.2,0-1.2,0-1.2,0s-2.7,0-3.2-0.3
		c-0.4-0.3-2.7-1.2-2.7-1.2s4.3,0.1,4.7,0.1c0.4,0,1.6,0.4,1.8,0.5c0.2,0.2,1.3,0.7,1.8,1.2C40.8,58.5,39.4,57.7,39.1,57.7z
		 M44.7,61c-0.3-0.4-0.9-1-1.5-1.5c0.3-0.1,0.6-0.1,0.9-0.2c0.4,0,0.9,0,1.4,0.1c0.9,0.1,1.7,0.2,2.3,0.4
		C46.8,60.2,45.6,60.8,44.7,61z M47.4,55.3c-1.1-0.7-1.9,0-3.2-0.9c-1.3-0.9-1.8-2.2-1.8-2.2s0.5,2.3,1.5,2.7c1,0.5,2,0,2.6,0.9
		c0.3,0.5,0,1.2-0.4,1.7c-0.1,0-0.1,0-0.2,0c-2.5,0.6-6.5,1.5-5.7-2.2c0.8-3.7,2.3-6.4,3.6-8.4c1.2-2,1.5-4.2-0.1-4.8
		c-0.1,0-0.2-0.1-0.3-0.1c-0.3-0.2-0.7-0.4-1.5-0.7c-1.3-0.5-1.5-0.5-1.8-0.7c-0.1-0.1-0.2-0.3-0.3-0.5c0.2,0,0.6,0,1.5,0
		c1,0.1,1.8,0.6,2,0.5c0.4,0.2,0.8,0.4,1.1,0.9c0.5,0.8,0.6,1.7,0.5,1.9c0,0.2-0.2,1.9-0.3,2c0,0.1,0.4-0.7,0.6-1.8
		c0.2-1.1,0.5-1.7,0-2.2c-0.6-0.5-1.6-0.8-1.8-1.6c0-0.1-0.1-0.3-0.1-0.3c0.1,0,0.3-0.1,0.5-0.1c1.1,0,1.1,0.1,1.4,0.6
		c0,0.1,0.1,0.1,0.1,0.1c0.2,0.3,0.3,0.7,0.5,1.2c0.6,2,0.3,4.8-1.7,8c-2,3.2-1.1,3.9,0.2,4.4c1.3,0.5,2.1-1.1,2.5-0.7
		c0.2,0.2,0.9,1.2,1.5,2.2c0.1,0.3,0.3,0.5,0.4,0.8c0.4,0.7,0.3,1.1,0,1.2C48.6,56.5,48.1,55.7,47.4,55.3z M44.9,53.2
		c-0.2,0-0.3-0.1-0.5-0.2C44.6,53.1,44.7,53.2,44.9,53.2z M48.9,62.8c-0.2,0-0.3,0-0.5,0c0.6-0.5,1.7-1.3,2.6-1.7
		c1-0.4,2-0.6,2.5-0.7c0.8,0.3,1.7,0.6,2.6,0.9C54.9,61.6,51,62.5,48.9,62.8z M51.7,57.4c1,0,2.1,0.1,3.3,0.1
		c-0.7,0.2-1.5,0.5-2,0.7c-0.3,0.2-0.7,0.2-1.1,0.2l-0.1-0.2c0-0.1,0-0.1,0-0.2C51.9,57.9,51.8,57.6,51.7,57.4z M59.5,58.7
		c-0.6,0.2-1.4,0.4-2.3,0.6c-1.2,0.2-2.4,0.3-3.3,0.3c-0.7-0.3-1.3-0.6-1.7-0.8L52,58.6c0.4-0.1,0.9-0.1,1.3-0.2
		c0.7-0.2,2.4-0.7,2.4-0.7L59.5,58.7z M56,57.1c-1.8,0.2-3.3,0-4.4-0.2c0-0.1-0.1-0.3-0.1-0.4c1.3,0.1,3,0.2,4.1,0.2
		c1.1,0,2.7-0.1,4-0.1C58.5,56.8,57.3,57,56,57.1z"/>
	<path class="st0" d="M9.3,58.6l0.2-0.1C9.2,58.5,9.3,58.6,9.3,58.6z"/>
</g>
<path class="st0" d="M0,0.1v72h72v-72H0z M70.9,71H1.1V1.3h69.8V71z"/>
</svg>
